<?xml version="1.0" encoding="UTF-8"?>
<svg width="27px" height="20px" viewBox="0 0 27 20" version="1.1" xmlns="http://www.w3.org/2000/svg" xmlns:xlink="http://www.w3.org/1999/xlink">
    <title>E47D4A34-B23D-4150-A0FB-9C58F3874DA8@1x</title>
    <g id="Locations" stroke="none" stroke-width="1" fill="none" fill-rule="evenodd">
        <g id="Desktop---Location-1.1---Filter" transform="translate(-1009.000000, -460.000000)">
            <g id="Group" transform="translate(1009.000000, 456.000000)">
                <g id="Group" transform="translate(1.368823, 6.300000)">
                    <g id="Icons-/-Payment-Type-/-Dunkin'-Card-1" transform="translate(12.150000, 7.650000) rotate(-10.000000) translate(-12.150000, -7.650000) ">
                        <path d="M2.32848,0 L21.97152,0 C23.257504,-2.36231427e-16 24.3,1.04249601 24.3,2.32848 L24.3,12.97152 C24.3,14.257504 23.257504,15.3 21.97152,15.3 L2.32848,15.3 C1.04249601,15.3 1.04566604e-15,14.257504 0,12.97152 L0,2.32848 C-1.57487618e-16,1.04249601 1.04249601,-2.07857782e-16 2.32848,0 Z" id="Base" fill="#F56200"></path>
                        <path d="M20.4992069,9.09308495 C20.5393505,9.09308495 20.570785,9.11647122 20.579426,9.16982363 L20.6480784,9.57682405 C20.6495072,9.58514798 20.6495072,9.59180712 20.6495072,9.59846626 C20.6495072,9.64182996 20.6237201,9.67520495 20.5836445,9.67520495 C20.5479235,9.67520495 20.5234972,9.65181867 20.5177818,9.61352861 L20.4963492,9.46171602 L20.489205,9.39496605 L20.4777743,9.46171602 L20.4434141,9.6051254 C20.4333442,9.65015389 20.4090539,9.67520495 20.371768,9.67520495 C20.3345501,9.67520495 20.3102598,9.65015389 20.3001899,9.6051254 L20.2658297,9.46171602 L20.254399,9.39496605 L20.2472548,9.46171602 L20.2257541,9.61352861 C20.2200388,9.65181867 20.1956804,9.67520495 20.1599594,9.67520495 C20.1198839,9.67520495 20.0941648,9.64182996 20.0941648,9.59846626 C20.0941648,9.59180712 20.0941648,9.58514798 20.0955256,9.57682405 L20.1641779,9.16982363 C20.172819,9.11647122 20.2043215,9.09308495 20.2444651,9.09308495 C20.2830438,9.09308495 20.3102598,9.11813601 20.3217586,9.16649406 L20.3660526,9.36325585 L20.371768,9.39496605 L20.3774833,9.36325585 L20.4219134,9.16649406 C20.4333442,9.11813601 20.4606282,9.09308495 20.4992069,9.09308495 Z M20.0268732,9.10307366 C20.0683096,9.10307366 20.0983832,9.13644865 20.0983832,9.18314192 C20.0983832,9.22983519 20.0683096,9.26321017 20.0268732,9.26321017 L19.9595136,9.26321017 L19.9595136,9.59014234 C19.9595136,9.63850039 19.9294399,9.67520495 19.8880036,9.67520495 C19.8450703,9.67520495 19.8149286,9.63850039 19.8149286,9.59014234 L19.8149286,9.26321017 L19.7491339,9.26321017 C19.7062007,9.26321017 19.676059,9.22983519 19.676059,9.18314192 C19.676059,9.13644865 19.7062007,9.10307366 19.7491339,9.10307366 L20.0268732,9.10307366 Z M10.796118,5.28085709 C11.2311693,5.28085709 11.4601379,5.59710884 11.4601379,6.0422308 L11.4601379,8.90615608 C11.4601379,9.28097503 11.1796623,9.54458335 10.8247391,9.54458335 C10.5385283,9.54458335 10.3610667,9.41571314 10.2008105,9.20486002 L9.38794997,8.15065028 C9.26773051,7.99255235 9.13036026,7.78169922 9.02155646,7.60594171 L9.02155646,8.77734175 C9.02155646,9.22833161 8.79264245,9.54458335 8.35759113,9.54458335 C7.9225398,9.54458335 7.69357117,9.22833161 7.69357117,8.77734175 L7.69357117,5.91922848 C7.69357117,5.54440953 7.97404682,5.28085709 8.33470519,5.28085709 C8.61518084,5.28085709 8.79832297,5.40967142 8.95289864,5.62052455 L9.71998726,6.67473429 C9.85735751,6.8621717 10.006198,7.07302483 10.132098,7.29555787 L10.132098,6.0422308 C10.132098,5.59710884 10.3610667,5.28085709 10.796118,5.28085709 Z M12.6149056,5.28081797 C13.0041851,5.28081797 13.2789256,5.56778612 13.2789256,5.97194456 L13.2789256,6.59276814 C13.3819396,6.44048222 13.4392364,6.36431132 13.5651364,6.20034549 L14.0230736,5.60293762 C14.6299607,4.81228031 15.7060368,5.73767573 15.0534325,6.51659724 L14.3207547,7.39510535 L15.1107292,8.30882086 C15.7346578,9.02917516 14.7271849,10.0365535 14.0917861,9.24002828 L13.5651364,8.5840532 C13.4392364,8.42589939 13.3877294,8.36146428 13.2789256,8.20923425 L13.2789256,8.85347353 C13.2789256,9.25757609 13.0041851,9.54454423 12.6149056,9.54454423 C12.2256808,9.54454423 11.9508857,9.25757609 11.9508857,8.85347353 L11.9508857,5.97194456 C11.9508857,5.56778612 12.2256808,5.28081797 12.6149056,5.28081797 Z M18.7932025,5.28085709 C19.2282538,5.28085709 19.4572224,5.59710884 19.4572224,6.0422308 L19.4572224,8.90615608 C19.4572224,9.28097503 19.1767468,9.54458335 18.8218235,9.54458335 C18.5356127,9.54458335 18.3581511,9.41571314 18.1978949,9.20486002 L17.3850345,8.15065028 C17.264815,7.99255235 17.1274447,7.78169922 17.0186409,7.60594171 L17.0186409,8.77734175 C17.0186409,9.22833161 16.7897269,9.54458335 16.3546756,9.54458335 C15.9196243,9.54458335 15.6906557,9.22833161 15.6906557,8.77734175 L15.6906557,5.91922848 C15.6906557,5.54440953 15.9711313,5.28085709 16.3317897,5.28085709 C16.6122653,5.28085709 16.7954075,5.40967142 16.9499831,5.62052455 L17.7170717,6.67473429 C17.854442,6.8621717 18.0032825,7.07302483 18.1291825,7.29555787 L18.1291825,6.0422308 C18.1291825,5.59710884 18.3581511,5.28085709 18.7932025,5.28085709 Z M5.24853357,5.36281765 C6.42199781,5.36281765 7.36075827,6.15353084 7.36075827,7.41272581 C7.36075827,8.67192078 6.42199781,9.46257808 5.24853357,9.46257808 L4.36122551,9.46257808 C3.93190932,9.46257808 3.61707746,9.14045844 3.61707746,8.70120438 L3.61707746,6.12419136 C3.61707746,5.6849373 3.93190932,5.36281765 4.36122551,5.36281765 L5.24853357,5.36281765 Z M5.28857031,6.67476782 L4.94511737,6.67476782 L4.94511737,8.15068381 L5.28857031,8.15068381 C5.7178865,8.15068381 6.03271836,7.86952768 6.03271836,7.41272581 C6.03271836,6.95586806 5.7178865,6.67476782 5.28857031,6.67476782 Z M20.5680862,5.28872008 C20.7982565,5.31962434 21.040334,5.48375782 21.0886184,5.77676151 C21.115164,5.9372066 21.0781313,6.1463273 21.0073979,6.40065875 C20.9395048,6.64504272 20.8701369,6.87003469 20.7179099,7.00644934 C20.5973628,7.11441866 20.4514171,7.13973444 20.3325085,7.12375141 L20.326828,7.12302491 C20.2079194,7.10665068 20.0734987,7.04316561 19.9847406,6.90669508 C19.8727142,6.73434654 19.8632102,6.49856882 19.8599876,6.24457267 C19.856765,5.98012608 19.874462,5.76843469 19.9410443,5.62061955 C20.06252,5.35075214 20.3379706,5.25703343 20.5680862,5.28872008 Z" id="DNKN'" fill="#FFFFFF" fill-rule="nonzero"></path>
                    </g>
                </g>
            </g>
        </g>
    </g>
</svg>