<?xml version="1.0" encoding="UTF-8"?>
<svg width="27px" height="24px" viewBox="0 0 27 24" version="1.1" xmlns="http://www.w3.org/2000/svg" xmlns:xlink="http://www.w3.org/1999/xlink">
    <title>01640A90-9DC2-49B8-8C75-C60149A18DC5@1x</title>
    <defs>
        <filter color-interpolation-filters="auto" id="filter-1">
            <feColorMatrix in="SourceGraphic" type="matrix" values="0 0 0 0 0.960784 0 0 0 0 0.384314 0 0 0 0 0.000000 0 0 0 1.000000 0"></feColorMatrix>
        </filter>
    </defs>
    <g id="Locations" stroke="none" stroke-width="1" fill="none" fill-rule="evenodd">
        <g id="Desktop---Location-1.1---Filter" transform="translate(-1009.000000, -395.000000)">
            <g id="Group" transform="translate(989.000000, 343.000000)">
                <g transform="translate(20.000000, 50.000000)" id="Group-21" filter="url(#filter-1)">
                    <g transform="translate(0.900000, 2.700000)">
                        <path d="M24.0545455,20.2157422 C24.6871625,20.2157422 25.2,20.7270907 25.2,21.3578711 C25.2,21.9401299 24.7630261,22.4206243 24.1982288,22.4911012 L24.0545455,22.5 L1.14545455,22.5 C0.512837468,22.5 0,21.9886515 0,21.3578711 C0,20.7756123 0.436973938,20.2951179 1.00177116,20.224641 L1.14545455,20.2157422 L24.0545455,20.2157422 Z" id="Stroke-1" fill="#F56200" fill-rule="nonzero"></path>
                        <path d="M20.8951273,11.516654 C20.4420364,11.9011707 19.9151273,12.1702055 19.3856727,12.4303571 C18.8358545,12.700661 18.8358545,12.6993919 18.8765818,12.0153836 C18.9313091,11.4519334 18.9885818,10.8085341 19.0598545,10.1676729 C19.1324,9.50650713 19.5727636,9.15879233 20.2676727,9.1930562 C21.0262182,9.23112716 21.4551273,9.61691293 21.4882182,10.2806167 C21.5111273,10.7996509 21.2769455,11.1930508 20.8951273,11.516654 M17.0985818,16.7793302 C17.0184,17.6194294 16.6824,17.8910023 15.8194909,17.8935403 C13.6265818,17.8973474 11.4324,17.8973474 9.24076364,17.8935403 C8.34858182,17.8910023 8.04185455,17.601663 7.96294545,16.7260308 C7.67785455,13.6042118 7.38894545,10.4811238 7.10003636,7.3593048 C7.0364,6.67783456 7.22476364,6.45575394 7.92221818,6.45321588 C9.46603636,6.44687071 11.0111273,6.45067781 12.5549455,6.45067781 C14.0618545,6.45067781 15.5674909,6.44940878 17.0744,6.45194684 C17.8393091,6.45321588 18.0124,6.61692102 17.9487636,7.35422867 C17.6738545,10.4963522 17.3925818,13.6397447 17.0985818,16.7793302 M22.6489455,9.34026393 C22.2302182,8.32123114 21.1445818,7.75270476 19.7993091,7.9164099 C19.3309455,7.97351634 19.2673091,7.84661313 19.2965818,7.42021834 C19.4009455,5.93418174 18.6424,5.14230571 17.1354909,5.13342248 C15.6094909,5.12453926 14.0809455,5.13088442 12.5549455,5.13215345 C10.9525818,5.13215345 9.34894545,5.11565603 7.74530909,5.13849861 C6.48912727,5.15626506 5.63385455,6.02555205 5.73567273,7.19813772 C6.02076364,10.5141186 6.31985455,13.8300995 6.64185455,17.1448114 C6.7564,18.3262803 7.74403636,19.2095266 8.92894545,19.2171408 C11.3331273,19.2336383 13.7373091,19.2349073 16.1427636,19.2158718 C17.3302182,19.2082576 18.2898545,18.3034377 18.4133091,17.1346591 C18.4947636,16.3580115 18.5889455,15.5813638 18.6194909,14.8034472 C18.6360364,14.3986259 18.8040364,14.1930427 19.1476727,14.0255305 C20.0347636,13.5889834 20.9549455,13.2019286 21.7249455,12.5597984 C22.7533091,11.7032017 23.1096727,10.4633573 22.6489455,9.34026393" id="Fill-3" fill="#F56200"></path>
                        <path d="M9.59089091,2.47112002 L9.6978,2.53457162 C9.84034545,2.62086581 9.85561818,2.76045934 9.85561818,2.81502772 C9.85561818,2.87086513 9.84034545,3.00918963 9.6978,3.09548382 L9.64434545,3.12847865 C9.39489091,3.27822444 9.31470909,3.60182763 9.46489091,3.85055792 C9.56416364,4.01426306 9.73852727,4.10563338 9.91798182,4.10563338 C10.0108909,4.10563338 10.1050727,4.08025273 10.1903455,4.02949145 L10.2438,3.99649661 C10.6625273,3.74395922 10.9119818,3.30233605 10.9119818,2.81502772 C10.9119818,2.32771939 10.6625273,1.88609622 10.2438,1.63355883 L10.1368909,1.57010722 C9.99434545,1.48381304 9.9778,1.34548854 9.9778,1.28965112 C9.9778,1.23381371 9.99434545,1.09548921 10.1381636,1.00919503 L10.1903455,0.976200193 C10.4398,0.826454404 10.5199818,0.502851216 10.3685273,0.254120923 C10.2183455,0.00539062902 9.8938,-0.0745583939 9.64434545,0.0764564272 L9.59089091,0.10818223 C9.17216364,0.359450588 8.92270909,0.802342794 8.92270909,1.28965112 C8.92270909,1.77695945 9.17216364,2.21858263 9.59089091,2.47112002" id="Fill-5" fill="#F56200"></path>
                        <path d="M14.4978909,2.4704855 L14.6048,2.53520614 C14.7473455,2.62150032 14.7626182,2.75982482 14.7626182,2.81566224 C14.7626182,2.87023062 14.7473455,3.00982415 14.6048,3.09611833 L14.5513455,3.12784414 C14.3018909,3.27885896 14.2217091,3.60246214 14.3718909,3.84992341 C14.4711636,4.01489758 14.6455273,4.10499886 14.8249818,4.10499886 C14.9178909,4.10499886 15.0108,4.08088725 15.0973455,4.02885693 L15.1508,3.99713113 C15.5695273,3.74459374 15.8189818,3.30297057 15.8189818,2.81566224 C15.8189818,2.32835391 15.5695273,1.88673073 15.1508,1.63419334 L15.0438909,1.57074174 C14.9000727,1.48317852 14.8860727,1.34485402 14.8860727,1.28901661 C14.8860727,1.2331792 14.9000727,1.09612373 15.0451636,1.00856051 L15.0973455,0.976834709 C15.3468,0.825819888 15.4257091,0.5022167 15.2755273,0.253486406 C15.1240727,0.00475611297 14.7995273,-0.0739238778 14.5500727,0.0758219111 L14.4978909,0.108816746 C14.0791636,0.360085104 13.8297091,0.801708278 13.8297091,1.28901661 C13.8297091,1.77759397 14.0791636,2.21794811 14.4978909,2.4704855" id="Fill-7" fill="#F56200"></path>
                        <path d="M12.0444545,2.4704855 L12.1500909,2.53520614 C12.2939091,2.62150032 12.3091818,2.75982482 12.3091818,2.81566224 C12.3091818,2.87023062 12.2939091,3.00982415 12.1513636,3.09611833 L12.0979091,3.12784414 C11.8484545,3.27885896 11.7682727,3.60246214 11.9184545,3.84992341 C12.0177273,4.01489758 12.1920909,4.10499886 12.3715455,4.10499886 C12.4644545,4.10499886 12.5586364,4.08088725 12.6439091,4.02885693 L12.6973636,3.99713113 C13.1148182,3.74459374 13.3655455,3.30297057 13.3655455,2.81566224 C13.3655455,2.32835391 13.1148182,1.88673073 12.6973636,1.63419334 L12.5904545,1.57074174 C12.4466364,1.48317852 12.4313636,1.34485402 12.4313636,1.28901661 C12.4313636,1.2331792 12.4466364,1.09612373 12.5904545,1.00856051 L12.6439091,0.976834709 C12.8933636,0.825819888 12.9722727,0.5022167 12.8220909,0.253486406 C12.6719091,0.00602514508 12.3460909,-0.0739238778 12.0979091,0.0758219111 L12.0444545,0.108816746 C11.6257273,0.360085104 11.3762727,0.801708278 11.3762727,1.28901661 C11.3762727,1.77759397 11.6257273,2.21794811 12.0444545,2.4704855" id="Fill-9" fill="#F56200"></path>
                        <path d="M10.9077818,9.53150706 C11.6701455,9.53150706 12.2785091,10.0302367 12.2785091,10.8271888 C12.2785091,11.622872 11.6701455,12.1216016 10.9077818,12.1216016 L10.9077818,12.1216016 L10.3337818,12.1216016 C10.0550545,12.1216016 9.85014545,11.9185565 9.85014545,11.6406384 L9.85014545,11.6406384 L9.85014545,10.0124702 C9.85014545,9.7345522 10.0550545,9.53150706 10.3337818,9.53150706 L10.3337818,9.53150706 Z M10.9345091,10.360185 L10.7117818,10.360185 L10.7117818,11.2929236 L10.9345091,11.2929236 C11.2132364,11.2929236 11.4168727,11.1152591 11.4168727,10.8271888 C11.4168727,10.5378495 11.2132364,10.360185 10.9345091,10.360185 L10.9345091,10.360185 Z" id="Fill-11" fill="#F56200"></path>
                        <path d="M12.9250545,12.1741395 C13.2076,12.1741395 13.3552364,11.9736325 13.3552364,11.6893693 L13.3552364,10.9495235 C13.4265091,11.0599293 13.5143273,11.1931777 13.5932364,11.2934312 L14.1201455,11.9596731 C14.2245091,12.0929215 14.3390545,12.1741395 14.5236,12.1741395 C14.7552364,12.1741395 14.9372364,12.0078963 14.9372364,11.7705873 L14.9372364,9.96094753 C14.9372364,9.6792224 14.7870545,9.47998436 14.5057818,9.47998436 C14.2245091,9.47998436 14.0756,9.6792224 14.0756,9.96094753 L14.0756,10.7528236 C13.9928727,10.611961 13.8974182,10.4787126 13.8083273,10.3606926 L13.3106909,9.69445079 C13.2101455,9.56120242 13.0917818,9.47998436 12.9097818,9.47998436 C12.6756,9.47998436 12.4948727,9.64622757 12.4948727,9.88353657 L12.4948727,11.6893693 C12.4948727,11.9736325 12.6425091,12.1741395 12.9250545,12.1741395" id="Fill-13" fill="#F56200"></path>
                        <path d="M10.2813455,15.0845378 C10.5333455,15.0845378 10.7115273,14.9030662 10.7115273,14.6479907 L10.7115273,14.2419004 C10.7828,14.3370779 10.8158909,14.3776869 10.8973455,14.4779404 L11.2384364,14.8929139 C11.6508,15.3954506 12.3037091,14.7596655 11.8989818,14.304083 L11.3873455,13.7266734 L11.8633455,13.1708373 C12.2858909,12.6797219 11.5884364,12.0946981 11.1938909,12.5946968 L10.8973455,12.9715993 C10.8158909,13.0756599 10.7789818,13.1238832 10.7115273,13.2190606 L10.7115273,12.8281987 C10.7115273,12.5718542 10.5333455,12.3903826 10.2813455,12.3903826 C10.0293455,12.3903826 9.85116364,12.5718542 9.85116364,12.8281987 L9.85116364,14.6479907 C9.85116364,14.9030662 10.0293455,15.0845378 10.2813455,15.0845378" id="Fill-15" fill="#F56200"></path>
                        <path d="M12.9020182,15.0845378 C13.1845636,15.0845378 13.3322,14.8852997 13.3322,14.5997675 L13.3322,13.8599218 C13.4034727,13.9715966 13.4912909,14.104845 13.5702,14.2050985 L14.0971091,14.8700713 C14.2014727,15.0045887 14.3160182,15.0845378 14.5018364,15.0845378 C14.7309273,15.0845378 14.9129273,14.9182946 14.9129273,14.6822546 L14.9129273,12.8726148 C14.9129273,12.5908897 14.7652909,12.3903826 14.4827455,12.3903826 C14.2014727,12.3903826 14.0525636,12.5908897 14.0525636,12.8726148 L14.0525636,13.6644908 C13.9711091,13.5236283 13.8743818,13.3903826 13.7852909,13.2710909 L13.2876545,12.604849 C13.1883818,12.4716007 13.0687455,12.3903826 12.8867455,12.3903826 C12.6538364,12.3903826 12.4718364,12.5566258 12.4718364,12.7939348 L12.4718364,14.5997675 C12.4718364,14.8852997 12.6194727,15.0845378 12.9020182,15.0845378" id="Fill-17" fill="#F56200"></path>
                        <path d="M15.4772545,13.5552272 L15.4810727,13.5552272 C15.5574364,13.5653794 15.6528909,13.548882 15.7305273,13.4803543 C15.8298,13.3953291 15.8743455,13.2531975 15.9188909,13.0983756 C15.9647091,12.9384776 15.9876182,12.8052292 15.9723455,12.7037066 C15.9392545,12.519697 15.7827091,12.4156363 15.6338,12.3953318 C15.4848909,12.3762963 15.3054364,12.4346718 15.2278,12.6047221 C15.1845273,12.6986305 15.1730727,12.8331479 15.1756182,13.0006601 C15.1768909,13.1592892 15.1832545,13.310304 15.2558,13.4181717 C15.3130727,13.5044659 15.3996182,13.5438059 15.4772545,13.5552272" id="Fill-19" fill="#F56200"></path>
                    </g>
                </g>
            </g>
        </g>
    </g>
</svg>