<?xml version="1.0" encoding="UTF-8"?>
<svg width="370px" height="78px" viewBox="0 0 370 78" version="1.1" xmlns="http://www.w3.org/2000/svg" xmlns:xlink="http://www.w3.org/1999/xlink" style="background: #FFFFFF;">
    <title>Symbols / Icons / Logo / Active / DoordashDesktop</title>
    <g id="Symbols-/-Icons-/-Logo-/-Active-/-DoordashDesktop" stroke="none" stroke-width="1" fill="none" fill-rule="evenodd">
        <rect fill="#FFFFFF" x="0" y="0" width="370" height="78"></rect>
        <g id="Group-2" transform="translate(0.000000, 18.000000)" fill-rule="nonzero">
            <path d="M1.38368849e-14,2.71932232 C0.153531024,0.560297627 0.566142634,0.0997082686 2.3589326,0.010148814 C2.79393407,-0.0106438962 3.23053455,0.00695450693 3.66553974,0.00695450693 C21.0736495,0.00695450693 38.4833582,0.00374534266 55.8930743,0.00854423182 C63.9710088,0.010148814 71.4812183,4.7440004 74.5374273,12.3533523 C76.0247561,16.0524787 76.8403815,19.7835927 76.528528,23.7226042 C76.1894858,27.9846789 74.6813643,31.8661111 71.9817811,35.1782137 C69.6388535,38.0537066 66.9104844,40.4926046 63.3441,41.8727755 C61.0411384,42.7651832 58.6965988,43.4304756 56.2417144,43.4800543 C51.8197163,43.5696137 47.3929268,43.4784571 42.9693315,43.5632251 C41.2277211,43.5968099 39.8363478,42.9123145 38.6992711,41.7800292 C34.7970313,37.8921861 30.968372,33.9307774 27.1157183,29.9917734 C26.9158067,29.7870629 26.7606748,29.5391773 26.6087447,29.3440645 C26.6871092,27.4729063 27.1684838,26.8475873 28.7245794,26.6444814 C29.2235524,26.5805061 29.7385267,26.6380928 30.2454929,26.6380928 C38.1523091,26.6380928 46.0591253,26.6396825 53.9659489,26.6380928 C55.1238183,26.6380928 56.2641042,26.6332864 57.3324217,26.0223641 C59.318716,24.8868771 60.1039659,23.030123 59.6017985,20.4408994 C59.2771381,18.7760489 57.2636549,17.0920102 55.3749057,16.9416772 C54.7256071,16.8905014 54.069905,16.9080924 53.4173972,16.9080924 C41.5219836,16.9064878 29.6249802,16.8697087 17.7295591,16.9352812 C15.1611283,16.9496704 13.1572429,16.1212529 11.3900408,14.2692902 C8.13551185,10.8596349 4.75624702,7.56672037 1.43455214,4.22263749 C0.925981321,3.71087236 0.438203209,3.17991168 1.38368849e-14,2.71932232 Z" id="Path-618" fill="#E82219"></path>
            <path d="M183.680833,37.8747867 C178.547136,38.0299037 174.416228,36.1603501 171.028955,32.7683006 C167.009982,28.7445138 165.132428,21.9395998 167.744049,15.9838961 C170.184559,10.4200186 174.325064,7.111114 180.363909,5.99642713 C186.311634,4.90091725 191.418113,6.46181538 195.606622,10.6247254 C203.231953,18.2036943 201.252062,30.4349485 192.101011,35.6853715 C189.401421,37.235071 186.56911,38.0778777 183.680833,37.8747867 Z M193.535567,21.9412044 C193.729068,16.661988 189.420631,11.779408 183.484123,11.7362217 C177.325306,11.6930466 173.213579,16.2429841 173.215168,21.947593 C173.216773,27.5546493 177.432456,32.1077922 183.642442,32.0791347 C189.956368,32.0502204 193.700289,26.6590547 193.535567,21.9412044 Z" id="Path-619" fill="#E82419"></path>
            <path d="M160.275034,20.3260421 C160.115126,28.2600545 157.174031,32.7124282 151.928429,35.8198203 C146.051067,39.3046459 137.128729,38.4666306 131.967873,33.6624077 C123.859533,26.1122247 125.145353,13.5946938 134.87854,7.92046791 C141.17969,4.24853026 148.795453,4.82906957 154.488852,9.53893413 C158.327116,12.715093 160.442966,16.9131925 160.275034,20.3260421 Z M153.625245,21.9669056 C153.877952,16.0671765 148.475591,11.6739644 143.885669,11.6627412 C138.253006,11.6483802 133.180105,15.9872149 133.311265,21.899736 C133.44241,27.8186458 137.464577,32.1159025 143.922455,32.0407397 C150.055674,31.9703684 153.726021,26.8494931 153.625245,21.9669056 Z" id="Path-620" fill="#E82419"></path>
            <path d="M244.12949,6.61079422 C244.574093,6.56760793 244.924338,6.50203921 245.276172,6.50203921 C248.824973,6.49724403 252.375379,6.4156852 255.919381,6.52442907 C263.602283,6.76272438 269.549994,11.5109689 271.002141,19.182699 C272.593411,27.5948842 267.58444,34.5437314 260.461299,36.793935 C259.047528,37.2401129 257.496239,37.3776463 256.004126,37.4192318 C252.67444,37.5087912 249.343164,37.4464354 246.011844,37.4464354 L244.134304,37.4464354 C243.665707,35.6056528 243.6529,8.55071545 244.12949,6.61079422 Z M250.462642,12.5185165 C250.113988,19.0051772 250.248327,29.8130816 250.7345,31.6458413 C252.100312,31.6458413 253.534838,31.7194143 254.9614,31.6298549 C257.936043,31.4443325 260.541261,30.4927856 262.52595,28.0682731 C266.548177,23.1584895 264.768131,15.1925043 258.302274,13.0174933 C255.757808,12.1618795 253.158979,12.7280222 250.462642,12.5185165 Z" id="Path-621" fill="#E82319"></path>
            <path d="M92.9488826,6.57405118 C97.7771073,6.57405118 102.538148,6.08148161 107.153661,6.69240397 C113.62113,7.54801025 117.932761,11.5749914 119.731958,17.9161143 C121.390413,23.7614733 119.309745,30.6447518 113.521958,34.6173629 C111.265396,36.1654503 108.762515,37.1458129 106.117324,37.2865481 C101.792879,37.5152456 97.4492526,37.3489188 93.1376067,37.3489188 C92.7009969,35.7752249 92.5474696,10.5738436 92.9488826,6.57405118 Z M99.4147543,31.3084471 C101.223542,31.3084471 102.814819,31.3660263 104.399708,31.2972521 C107.702191,31.1517254 110.339403,29.7491572 112.122592,26.9200486 C114.652639,22.904255 113.793846,18.039266 110.817591,15.0566152 C107.515086,11.7477143 103.473716,12.1187442 99.4147543,12.2818767 L99.4147543,31.3084471 Z" id="Path-622" fill="#E82219"></path>
            <path d="M215.575291,26.6171502 L215.575291,36.7709571 C214.020808,37.5433999 210.836663,37.5801865 209.114263,36.8748983 L209.114263,6.62141219 C209.608415,6.56543753 210.088185,6.46468686 210.567985,6.46468686 C214.698892,6.45189106 218.833039,6.51105631 222.963946,6.44229699 C227.780991,6.3623316 232.7995,9.77038234 233.274486,16.0091611 C233.563965,19.7930481 231.873537,22.8524588 228.812529,25.1186413 C228.641374,25.2449724 228.431887,25.3185455 228.251163,25.4336966 C228.131206,25.5120611 228.030474,25.6208087 227.806546,25.8159214 L233.896618,36.5822404 C232.903471,37.4890224 232.903471,37.4890224 227.422753,37.3626764 C225.162937,34.0314005 223.501333,30.1947406 221.24954,26.6171502 L215.575291,26.6171502 Z M226.443988,17.7923496 C226.472752,17.3717336 226.527159,16.9383405 226.527159,16.5049324 C226.52395,14.1539967 225.140562,12.4123863 222.823219,12.2476677 C220.465879,12.0781429 218.08777,12.2092803 215.695249,12.2092803 L215.695249,20.4279574 C217.755116,20.4279574 219.707833,20.3240013 221.644564,20.4567359 C223.774795,20.60227 225.273297,19.7802486 226.443988,17.7923496 Z" id="Path-623" fill="#E82319"></path>
            <path d="M350.437753,24.8513495 C350.23308,28.8975188 350.565734,32.8605246 350.2299,36.900283 C348.147628,37.6423428 346.140534,37.1481687 344.071039,37.279321 C343.914354,36.8123281 343.67444,36.4285061 343.672835,36.0446842 C343.652035,26.6137452 343.653639,17.1844183 343.666446,7.75509141 C343.666446,7.41284741 343.813563,7.07060341 343.922348,6.59881912 L350.121116,6.59881912 C350.656898,8.53074344 350.295421,10.5522198 350.361001,12.5353273 C350.428185,14.4912461 350.375412,16.4503517 350.375412,18.3966727 C351.987482,18.7645083 359.38731,18.8572621 363.547041,18.5550063 L363.547041,6.6164101 C365.789236,6.34773173 367.842685,6.42609626 370.000106,6.55083766 L370.000106,36.9034847 C367.962672,37.6471491 365.837195,37.3017108 363.574229,37.0762002 L363.574229,24.8513495 L350.437753,24.8513495 Z" id="Path-624" fill="#E82519"></path>
            <path d="M287.804242,6.50031579 L294.967424,6.50031579 C296.987296,11.5764225 299.058336,16.6749117 301.043025,21.8069893 C302.998952,26.8639042 305.086008,31.8744199 306.939568,37.0160954 C305.66654,37.6334212 304.569451,37.3503388 303.513963,37.3967231 C302.437615,37.4430999 301.356513,37.4063134 300.131445,37.4063134 L297.40312,30.0768422 L285.494892,30.0768422 C284.578527,32.4405774 283.628555,34.8874538 282.692965,37.3007676 C280.495579,37.3007676 278.4837,37.3167614 276.471762,37.2719817 C276.287889,37.2687874 276.115159,36.8705687 275.921658,36.6370649 C279.876656,26.6064134 283.817272,16.6141381 287.804242,6.50031579 Z M291.362641,14.0984765 C290.038445,17.6648646 288.83899,20.8986027 287.559544,24.3482314 C288.976508,24.3482314 290.193584,24.3786145 291.4106,24.3402382 C292.602062,24.3018546 293.817562,24.5161554 295.096979,24.1595222 L291.362641,14.0984765 Z" id="Path-625" fill="#E82319"></path>
            <path d="M333.584174,10.0550582 C332.363919,11.2577185 331.234828,12.370812 329.929827,13.6550311 C329.398889,13.368758 328.843912,13.1128755 328.332169,12.785017 C326.571348,11.6591352 324.713004,11.2785075 322.611536,11.598358 C321.224969,11.8094608 320.465319,12.657085 319.571299,13.6486276 L319.571299,15.7324895 C320.799547,17.5844447 322.787476,18.0770217 324.695383,18.6879515 C326.943968,19.4076215 329.254922,19.9017956 331.287601,21.2451875 C334.175908,23.1547219 335.304999,25.7775303 334.895593,29.1440104 C334.281484,34.1929247 330.630317,37.4842272 325.514225,37.8840505 C322.68193,38.1063519 319.943948,38.0119936 317.282749,36.9756564 C315.107738,36.1296479 313.166223,34.9493812 311.610105,32.8175452 C312.819158,31.5669072 314.002626,30.3434653 315.102924,29.2063811 C316.134492,29.1504139 316.495909,29.895668 317.066843,30.2954913 C319.555313,32.0322954 322.245305,32.7775644 325.21197,31.8036053 C325.931625,31.5669072 326.660907,31.1319094 327.19348,30.5961498 C328.935105,28.8401501 328.578413,26.7370927 326.579341,25.7839337 C325.03606,25.0482625 323.419176,24.4453334 321.792724,23.9079841 C319.747238,23.2298921 317.69058,22.6621523 315.907355,21.3363441 C311.191101,17.833935 311.963589,10.9538471 316.198438,7.76329894 C320.935521,4.1953137 329.173386,5.27641949 333.139586,9.30500151 C333.285128,9.45372993 333.360276,9.67123252 333.584174,10.0550582 Z" id="Path-626" fill="#E82419"></path>
        </g>
    </g>
</svg>