<svg xmlns="http://www.w3.org/2000/svg" xmlns:xlink="http://www.w3.org/1999/xlink" width="22.324" height="22.324" viewBox="0 0 22.324 22.324"><defs><clipPath id="a"><path d="M20.325,22.324a1.965,1.965,0,0,1-1.994-1.931V19.287H3.984v1.106A1.965,1.965,0,0,1,1.99,22.324,2,2,0,0,1,.3,21.406a1.843,1.843,0,0,1-.292-.815L0,8.8V8.743a.857.857,0,0,1,.038-.365L2.418,1.437C2.582,1.005,3.068,0,4.055,0H18.17a1.92,1.92,0,0,1,1.837,1.2c.248.576,2.187,6.8,2.269,7.062l.02.121c0,.1.027,10.378.027,11.669v.1a2.219,2.219,0,0,1-.033.511A1.98,1.98,0,0,1,20.325,22.324Zm-2.27-11.137a1.932,1.932,0,1,0,1.994,1.93A1.965,1.965,0,0,0,18.054,11.188Zm-13.309,0a1.932,1.932,0,1,0,0,3.861,1.932,1.932,0,1,0,0-3.861Zm-.461-9.4h0a1.5,1.5,0,0,0-.126.245L2.2,7.758l17.956-.115c-.8-2.549-1.717-5.439-1.851-5.757a.242.242,0,0,0-.056-.091.272.272,0,0,0-.078-.009H4.284Z" fill="#f56200"/></clipPath></defs><g transform="translate(0)"><path d="M20.325,22.324a1.965,1.965,0,0,1-1.994-1.931V19.287H3.984v1.106A1.965,1.965,0,0,1,1.99,22.324,2,2,0,0,1,.3,21.406a1.843,1.843,0,0,1-.292-.815L0,8.8V8.743a.857.857,0,0,1,.038-.365L2.418,1.437C2.582,1.005,3.068,0,4.055,0H18.17a1.92,1.92,0,0,1,1.837,1.2c.248.576,2.187,6.8,2.269,7.062l.02.121c0,.1.027,10.378.027,11.669v.1a2.219,2.219,0,0,1-.033.511A1.98,1.98,0,0,1,20.325,22.324Zm-2.27-11.137a1.932,1.932,0,1,0,1.994,1.93A1.965,1.965,0,0,0,18.054,11.188Zm-13.309,0a1.932,1.932,0,1,0,0,3.861,1.932,1.932,0,1,0,0-3.861Zm-.461-9.4h0a1.5,1.5,0,0,0-.126.245L2.2,7.758l17.956-.115c-.8-2.549-1.717-5.439-1.851-5.757a.242.242,0,0,0-.056-.091.272.272,0,0,0-.078-.009H4.284Z" transform="translate(0 0)" fill="#f56200"/><g transform="translate(0 0)" clip-path="url(#a)"><g transform="translate(-21.011 -22.324)"><rect width="65.659" height="65.659" fill="#f56200"/></g></g></g></svg>