<svg width="370" height="78" viewBox="0 0 370 78" fill="none" xmlns="http://www.w3.org/2000/svg">
<rect width="370" height="78" fill="white"/>
<g clip-path="url(#clip0_749_5266)">
<path d="M112.312 23.402C112.156 23.2165 112.056 22.9907 112.025 22.7511V22.7511C111.654 18.304 111.035 13.8807 110.17 9.50169C110.072 9.06222 109.837 8.6643 109.5 8.36353C109.163 8.06277 108.739 7.87418 108.289 7.82413L101.87 7.0558C101.814 7.05236 101.758 7.05236 101.701 7.0558C101.343 7.0558 100.999 7.1972 100.746 7.44888C100.492 7.70056 100.35 8.04192 100.35 8.39785V10.6089C100.349 10.6305 100.34 10.651 100.324 10.666C100.308 10.681 100.288 10.6894 100.266 10.6894C100.256 10.6897 100.247 10.6881 100.238 10.6846C100.229 10.6812 100.222 10.6759 100.215 10.6693V10.6693C96.2035 7.05977 91.8733 3.81573 87.2769 0.976312V0.976312C86.3398 0.352408 85.2364 0.020618 84.1083 0.0234556V0.0234556C82.9801 0.020618 81.8767 0.352408 80.9396 0.976312V0.976312C58.8469 14.5075 46.679 36.5407 46.2094 37.7519C46.0727 38.0417 46.0012 38.3577 46 38.6779C45.9994 39.1621 46.1616 39.6327 46.4608 40.015C46.7601 40.3973 47.1792 40.6694 47.6519 40.7883L54.0263 42.0062C54.4472 42.1205 54.824 42.3574 55.1081 42.6863C55.3923 43.0151 55.5709 43.421 55.6208 43.8515C55.6715 44.9687 56.8741 69.9108 58.3875 76.3962C58.5118 76.8599 58.7868 77.2698 59.1698 77.5622C59.5529 77.8547 60.0224 78.0133 60.5055 78.0134H60.5562C64.2721 77.9228 67.6738 77.8591 71.3458 77.8121H71.3695H71.6532C71.8417 77.8112 72.0221 77.7362 72.1551 77.6036C72.288 77.4709 72.3626 77.2913 72.3626 77.1042V77.0874C72.214 74.9099 71.8931 69.9309 71.633 64.6902C71.633 64.5593 71.633 64.3916 71.6093 64.2607C71.5978 64.0423 71.5326 63.83 71.4196 63.6423C71.3065 63.4546 71.149 63.2972 70.9607 63.1837C69.9917 62.608 69.18 61.8044 68.5974 60.8436C68.0148 59.8829 67.6791 58.7946 67.6198 57.6746C67.282 48.9278 67.1165 38.8221 67.5995 30.9108C67.6067 30.5735 67.7485 30.2529 67.9936 30.0195C68.2388 29.786 68.5673 29.6589 68.9068 29.666C69.2464 29.6731 69.5692 29.8139 69.8042 30.0574C70.0393 30.3009 70.1673 30.6272 70.1601 30.9644C70.1619 30.9968 70.1619 31.0293 70.1601 31.0617C69.846 36.336 69.8223 42.5698 69.9338 48.7198C69.941 49.1202 70.108 49.5014 70.3981 49.7795C70.6883 50.0576 71.0778 50.2099 71.481 50.2027C71.8841 50.1956 72.2679 50.0297 72.5479 49.7415C72.828 49.4534 72.9812 49.0665 72.9741 48.6661C72.8592 42.4759 72.8896 36.2018 73.2139 30.9108C73.2363 30.5846 73.3843 30.2795 73.6272 30.0588C73.8701 29.8382 74.1892 29.7189 74.5183 29.7258C74.8474 29.7327 75.1612 29.8653 75.3945 30.0959C75.6278 30.3266 75.7627 30.6376 75.7711 30.9644C75.7728 30.9968 75.7728 31.0293 75.7711 31.0617C75.457 36.3092 75.4333 42.5027 75.5414 48.6225C75.5477 49.0229 75.7139 49.4045 76.0034 49.6832C76.2929 49.9619 76.682 50.115 77.0852 50.1088C77.4884 50.1026 77.8725 49.9375 78.1532 49.65C78.4338 49.3624 78.588 48.9759 78.5817 48.5755C78.4702 42.4121 78.5006 36.1615 78.8215 30.9074C78.8287 30.5702 78.9705 30.2495 79.2156 30.0161C79.4608 29.7827 79.7893 29.6555 80.1289 29.6627C80.4684 29.6698 80.7912 29.8106 81.0263 30.0541C81.2613 30.2976 81.3893 30.6238 81.3821 30.9611V31.0584C80.9227 38.7483 81.0714 48.4816 81.3821 57.0204C81.3805 57.0461 81.3805 57.0718 81.3821 57.0975V57.2284C81.3821 57.2586 81.3821 57.2854 81.3821 57.3123C81.3825 58.4203 81.1114 59.5118 80.5924 60.4926C80.0733 61.4734 79.3218 62.3141 78.4027 62.9422C78.2367 63.0555 78.0993 63.2052 78.0009 63.3798C77.9025 63.5543 77.8458 63.7489 77.8351 63.9487C77.8351 63.9487 77.6764 65.2572 78.2608 71.6118C78.531 74.3865 78.7405 76.309 78.8351 77.178C78.8565 77.3404 78.937 77.4895 79.0615 77.597C79.1859 77.7045 79.3457 77.7631 79.5107 77.7618H80.1052H83.9123H84.4022C86.0642 77.7618 87.6485 77.7618 89.1754 77.7618L92.7866 77.792C92.9526 77.7931 93.1132 77.7336 93.2378 77.6247C93.3624 77.5158 93.4423 77.3651 93.4622 77.2014C94.2966 69.5853 94.4959 65.3109 94.4959 65.3109C94.492 65.1282 94.4213 64.9532 94.297 64.8186C94.1726 64.684 94.0032 64.599 93.8203 64.5795L89.4288 63.9755C89.1372 63.9402 88.8627 63.8201 88.6397 63.6302C88.4168 63.4404 88.2552 63.1893 88.1755 62.9086C88.1201 62.6895 88.1018 62.4627 88.1214 62.2376C89.8983 36.8594 98.3233 28.3072 98.3233 28.3072C98.4473 28.1814 98.5843 28.0689 98.732 27.9717C98.899 27.8522 99.0913 27.7722 99.2942 27.7377C99.4971 27.7033 99.7052 27.7153 99.9027 27.7729C100.1 27.8305 100.282 27.9322 100.434 28.0701C100.586 28.2081 100.704 28.3787 100.779 28.5689C100.842 28.7658 100.88 28.9698 100.891 29.1762C101.617 37.1547 101.262 50.7295 100.813 61.3183C100.431 70.3067 99.9684 77.3591 99.9684 77.3591V77.3759C99.9684 77.5147 100.024 77.6479 100.123 77.746C100.222 77.8442 100.356 77.8993 100.495 77.8993V77.8993C102.887 77.9362 105.242 77.9866 107.738 78.0469V78.0469C108.221 78.0468 108.691 77.8882 109.074 77.5958C109.457 77.3033 109.732 76.8934 109.856 76.4298C111.369 69.9611 112.559 45.0191 112.623 43.885C112.673 43.4545 112.851 43.0487 113.135 42.7198C113.42 42.391 113.796 42.1541 114.217 42.0397L120.585 40.8218C121.058 40.703 121.477 40.4309 121.776 40.0486C122.075 39.6662 122.237 39.1957 122.237 38.7114C122.236 38.3913 122.164 38.0753 122.027 37.7854C121.798 37.1312 118.477 31.0282 112.312 23.402Z" fill="#F47920"/>
<path d="M134.525 65.6691L134.506 65.6498L134.525 65.6691Z" fill="#F47920"/>
<path d="M177.455 51.6354L177.479 51.6119C178.163 51.1385 178.791 50.5892 179.35 49.9746L179.327 50.0216C181.364 47.6784 182.437 44.6578 182.33 41.5633V41.4895C182.384 38.433 181.265 35.4704 179.202 33.2024L179.327 33.3466C178.313 32.2104 177.076 31.2926 175.691 30.6497C174.307 30.0069 172.804 29.6527 171.277 29.609H160.078C159.899 29.609 159.727 29.6797 159.6 29.8055C159.474 29.9314 159.403 30.1021 159.403 30.28V67.5991C159.403 67.7771 159.474 67.9478 159.6 68.0736C159.727 68.1994 159.899 68.2701 160.078 68.2701H166.747C166.923 68.2702 167.092 68.2018 167.218 68.0796C167.345 67.9573 167.418 67.7909 167.422 67.6159V53.7894H169.885L174.094 67.8809C174.138 68.0149 174.223 68.1318 174.338 68.2149C174.452 68.298 174.59 68.3431 174.732 68.3439H181.826C181.931 68.3439 182.035 68.3197 182.129 68.2731C182.222 68.2265 182.304 68.1589 182.367 68.0755C182.415 67.9857 182.44 67.8855 182.44 67.7836C182.44 67.6818 182.415 67.5816 182.367 67.4917L177.455 51.6354ZM173.32 44.7641H173.344C173.006 45.1241 172.593 45.4067 172.134 45.5921C171.675 45.7775 171.18 45.8613 170.685 45.8378H167.412V37.5036H170.662C171.157 37.4821 171.651 37.5671 172.11 37.7531C172.569 37.939 172.982 38.2213 173.32 38.5806V38.5571C174.014 39.3844 174.375 40.4373 174.334 41.513V41.5633C174.415 42.7191 174.053 43.8625 173.32 44.7641V44.7641Z" fill="#F47920"/>
<path d="M206.746 65.6196L206.726 65.639L206.746 65.6196Z" fill="#F47920"/>
<path d="M151.386 32.2998C150.291 31.2131 148.983 30.3614 147.543 29.7975C146.104 29.2337 144.562 28.9696 143.015 29.0218H142.968C141.421 28.9639 139.878 29.225 138.437 29.7886C136.997 30.3522 135.689 31.2061 134.597 32.2964L134.671 32.1991C132.551 34.6227 131.461 37.7696 131.631 40.9761V56.8694C131.408 60.0596 132.439 63.2114 134.506 65.6631C135.599 66.7488 136.906 67.5985 138.346 68.1591C139.785 68.7197 141.325 68.9791 142.87 68.921H142.992C144.539 68.9774 146.082 68.7153 147.522 68.1512C148.963 67.5871 150.27 66.7331 151.363 65.643C153.434 63.1906 154.467 60.0359 154.244 56.8425V48.1628C154.236 47.9844 154.16 47.8157 154.032 47.691C153.903 47.5663 153.731 47.495 153.552 47.4918H143.708C143.525 47.4939 143.351 47.564 143.218 47.6884C143.085 47.8127 143.004 47.9821 142.992 48.1628V54.665C142.997 54.8499 143.075 55.0253 143.209 55.1538C143.343 55.2824 143.522 55.3538 143.708 55.3528H146.41V56.8425C146.468 57.9615 146.138 59.0663 145.475 59.9728L145.502 59.946C145.214 60.3095 144.842 60.5978 144.417 60.7855C143.992 60.9732 143.527 61.0548 143.063 61.023H143.015C142.555 61.0642 142.092 60.992 141.666 60.813C141.241 60.6339 140.867 60.3534 140.576 59.9963C139.887 59.1112 139.538 58.0106 139.593 56.8928V41.0969C139.545 39.9503 139.912 38.8244 140.627 37.923C140.914 37.5597 141.286 37.2716 141.71 37.0839C142.135 36.8962 142.599 36.8145 143.063 36.846H143.113C143.573 36.8048 144.036 36.8769 144.461 37.056C144.886 37.2351 145.259 37.5156 145.549 37.8726L145.6 37.923C146.222 38.8514 146.508 39.9623 146.41 41.0734V42.543C146.426 42.7082 146.504 42.8612 146.63 42.9704C146.756 43.0797 146.919 43.1368 147.086 43.1301H153.758C153.925 43.1385 154.089 43.082 154.215 42.9724C154.341 42.8628 154.419 42.7088 154.433 42.543V41.0499C154.613 37.8502 153.522 34.7082 151.393 32.2998H151.386Z" fill="#F47920"/>
<path d="M189.933 65.6423L189.914 65.6229L189.933 65.6423Z" fill="#F47920"/>
<path d="M265.633 29.6559H258.935C258.758 29.6559 258.589 29.7243 258.463 29.8465C258.337 29.9687 258.263 30.1351 258.259 30.3102V44.7909H251.503V30.3169C251.503 30.1389 251.432 29.9683 251.305 29.8424C251.178 29.7166 251.006 29.6459 250.827 29.6459H244.189C244.01 29.6459 243.838 29.7166 243.712 29.8424C243.585 29.9683 243.514 30.1389 243.514 30.3169V67.5991C243.514 67.777 243.585 67.9477 243.712 68.0736C243.838 68.1994 244.01 68.2701 244.189 68.2701H250.861C251.037 68.2702 251.207 68.2018 251.333 68.0795C251.459 67.9573 251.532 67.7909 251.537 67.6159V52.6151H258.293V67.5991C258.293 67.777 258.364 67.9477 258.491 68.0736C258.617 68.1994 258.789 68.2701 258.968 68.2701H265.63C265.806 68.2702 265.976 68.2018 266.102 68.0795C266.228 67.9573 266.301 67.7909 266.306 67.6159V30.3169C266.303 30.1413 266.231 29.9737 266.105 29.8501C265.98 29.7265 265.81 29.6568 265.633 29.6559V29.6559Z" fill="#F47920"/>
<path d="M209.604 56.8426V30.2331C209.591 30.0731 209.517 29.9241 209.398 29.8154C209.28 29.7067 209.124 29.6462 208.962 29.6459H202.145C201.979 29.6392 201.815 29.6963 201.69 29.8056C201.564 29.9148 201.485 30.0679 201.47 30.2331V56.8325C201.526 57.9172 201.195 58.9867 200.534 59.8521C199.993 60.4252 199.248 60.7661 198.457 60.8024C197.667 60.8388 196.894 60.5677 196.301 60.0467C196.214 59.9869 196.139 59.9119 196.078 59.8253C195.449 58.9709 195.136 57.9266 195.193 56.8694V30.2331C195.193 30.1555 195.177 30.0788 195.147 30.0073C195.116 29.9359 195.072 29.871 195.017 29.8165C194.961 29.762 194.895 29.7188 194.823 29.6896C194.751 29.6603 194.673 29.6455 194.595 29.6459H187.718C187.636 29.6371 187.554 29.6446 187.476 29.6678C187.398 29.691 187.325 29.7296 187.262 29.7812C187.199 29.8328 187.147 29.8964 187.109 29.9682C187.072 30.0401 187.049 30.1187 187.042 30.1995V56.8325C186.818 60.0239 187.848 63.1774 189.917 65.6296C191.008 66.7162 192.313 67.5672 193.75 68.1296C195.188 68.6919 196.727 68.9533 198.271 68.8975H198.369C199.911 68.9539 201.448 68.6937 202.884 68.1331C204.321 67.5726 205.625 66.7237 206.716 65.6397C208.788 63.1888 209.824 60.0356 209.604 56.8426Z" fill="#F47920"/>
<path d="M323.649 56.3292V56.3796C323.65 54.8313 323.302 53.3024 322.629 51.9058C321.956 50.5092 320.975 49.2805 319.76 48.3105L319.811 48.334L319.858 48.287C320.863 47.3283 321.662 46.1779 322.208 44.9049C322.753 43.6319 323.034 42.2624 323.034 40.8789V41.0265C323.136 38.1057 322.115 35.2557 320.179 33.0547L320.227 33.1285C319.194 31.9844 317.925 31.074 316.507 30.4587C315.089 29.8434 313.555 29.5376 312.008 29.562H301.323C301.147 29.562 300.977 29.6304 300.851 29.7526C300.725 29.8748 300.652 30.0412 300.647 30.2163V67.5991C300.647 67.7771 300.718 67.9477 300.845 68.0736C300.972 68.1994 301.144 68.2701 301.323 68.2701H312.45C314.119 68.3009 315.773 67.9615 317.292 67.2766C318.812 66.5917 320.158 65.5785 321.233 64.3111L321.21 64.3346C322.949 62.0357 323.813 59.2 323.649 56.3292V56.3292ZM308.609 37.5036H311.957C312.371 37.476 312.785 37.5382 313.172 37.686C313.559 37.8337 313.908 38.0635 314.197 38.3592L314.247 38.4095C314.827 39.1907 315.107 40.1524 315.035 41.1204C315.112 42.1591 314.815 43.1913 314.197 44.0327V44.0092C313.924 44.3229 313.583 44.5698 313.198 44.7304C312.814 44.8911 312.397 44.9612 311.981 44.9352H308.603L308.609 37.5036ZM315.828 56.3796V56.403C315.867 57.5047 315.518 58.5852 314.842 59.4596L314.869 59.5099L314.893 59.483C314.592 59.8401 314.209 60.1198 313.776 60.2985C313.343 60.4773 312.873 60.5497 312.406 60.5097H308.609V52.4574H312.423C312.89 52.4174 313.36 52.4899 313.793 52.6686C314.226 52.8473 314.609 53.127 314.91 53.4841L314.886 53.4572C315.543 54.2875 315.877 55.3247 315.828 56.3796V56.3796Z" fill="#F47920"/>
<path d="M294.725 56.8426V30.2331C294.714 30.0771 294.645 29.931 294.531 29.8226C294.418 29.7142 294.268 29.6513 294.111 29.6459H287.243C287.162 29.6376 287.08 29.6454 287.002 29.6688C286.924 29.6922 286.851 29.7308 286.789 29.7823C286.726 29.8338 286.674 29.8972 286.636 29.9689C286.598 30.0405 286.575 30.1189 286.567 30.1995V56.8325C286.628 57.8985 286.316 58.9526 285.682 59.8152C285.144 60.4 284.395 60.751 283.598 60.7924C282.801 60.8339 282.02 60.5624 281.423 60.0367C281.337 59.9749 281.262 59.9001 281.2 59.8152C280.571 58.9606 280.258 57.9165 280.315 56.8594V30.2331C280.3 30.0676 280.221 29.9141 280.096 29.8047C279.97 29.6952 279.806 29.6384 279.639 29.6459H272.819C272.651 29.6384 272.488 29.6952 272.362 29.8047C272.236 29.9141 272.158 30.0676 272.143 30.2331V56.9063C271.932 60.0741 272.964 63.2001 275.021 65.6297L275.095 65.7035C277.416 67.768 280.428 68.8976 283.543 68.8709C286.658 68.8442 289.651 67.6632 291.935 65.5592L291.834 65.633C293.905 63.184 294.941 60.0337 294.725 56.8426Z" fill="#F47920"/>
<path d="M238.551 56.3292V56.4298C238.551 54.8803 238.202 53.3504 237.529 51.9524C236.857 50.5544 235.877 49.3237 234.663 48.3507L234.71 48.3004C235.712 47.3451 236.51 46.1992 237.055 44.9309C237.601 43.6627 237.883 42.2982 237.886 40.9191C237.917 38.0936 236.901 35.3553 235.031 33.2258V33.2493C233.999 32.1046 232.73 31.1935 231.312 30.5776C229.894 29.9617 228.36 29.6554 226.812 29.6794H216.175C215.999 29.6794 215.829 29.7477 215.703 29.87C215.577 29.9922 215.504 30.1586 215.499 30.3337V67.599C215.499 67.777 215.57 67.9477 215.697 68.0735C215.824 68.1994 215.996 68.2701 216.175 68.2701H227.353C229.017 68.2956 230.666 67.9526 232.18 67.2661C233.694 66.5795 235.035 65.5666 236.106 64.3009L236.082 64.3244C237.829 62.0324 238.704 59.2002 238.551 56.3292ZM223.461 37.5036H226.809C227.223 37.4759 227.638 37.5381 228.026 37.6858C228.413 37.8336 228.763 38.0633 229.052 38.3591L229.099 38.4094C229.681 39.1902 229.961 40.152 229.89 41.1204C229.965 42.1589 229.669 43.1905 229.052 44.0326V44.0091C228.78 44.3229 228.438 44.5697 228.054 44.7304C227.669 44.891 227.252 44.9611 226.836 44.9352H223.458L223.461 37.5036ZM230.674 56.3795V56.403C230.713 57.5043 230.366 58.5848 229.691 59.4595L229.714 59.5098L229.738 59.483C229.437 59.84 229.054 60.1198 228.621 60.2985C228.188 60.4772 227.719 60.5496 227.252 60.5097H223.461V52.4574H227.279C227.746 52.4176 228.215 52.4902 228.648 52.6689C229.081 52.8476 229.464 53.1272 229.765 53.484L229.738 53.4572C230.394 54.2875 230.726 55.3252 230.674 56.3795Z" fill="#F47920"/>
<path d="M229.886 41.1473C229.885 41.1384 229.885 41.1293 229.886 41.1204C229.885 41.1127 229.885 41.1046 229.886 41.0969V41.1473Z" fill="#F47920"/>
<path d="M323.463 29.354C323.775 29.3453 324.082 29.4293 324.346 29.5951C324.609 29.761 324.817 30.0012 324.942 30.285C325.068 30.5687 325.105 30.8832 325.049 31.1881C324.994 31.493 324.848 31.7745 324.63 31.9964C324.412 32.2184 324.133 32.3708 323.827 32.4341C323.522 32.4974 323.204 32.4688 322.915 32.3518C322.627 32.2349 322.379 32.0349 322.205 31.7776C322.032 31.5203 321.939 31.2173 321.94 30.9074C321.937 30.7061 321.974 30.5062 322.049 30.3191C322.124 30.1321 322.236 29.9615 322.377 29.8173C322.519 29.673 322.688 29.5579 322.874 29.4784C323.06 29.3989 323.26 29.3566 323.463 29.354ZM323.463 32.1757C323.718 32.1877 323.97 32.1238 324.188 31.9921C324.406 31.8604 324.579 31.667 324.685 31.4368C324.791 31.2066 324.825 30.9501 324.783 30.7004C324.742 30.4506 324.625 30.219 324.45 30.0354C324.274 29.8518 324.047 29.7247 323.798 29.6703C323.549 29.6158 323.29 29.6367 323.053 29.7301C322.816 29.8236 322.612 29.9853 322.469 30.1945C322.325 30.4038 322.248 30.6509 322.247 30.9041C322.241 31.0673 322.268 31.23 322.326 31.3827C322.385 31.5355 322.473 31.6751 322.586 31.7935C322.699 31.912 322.835 32.0067 322.986 32.0724C323.136 32.138 323.299 32.1731 323.463 32.1757V32.1757ZM322.939 30.0988H323.564C323.631 30.0935 323.699 30.1024 323.762 30.1249C323.825 30.1474 323.883 30.183 323.931 30.2294C323.979 30.2757 324.017 30.3317 324.042 30.3937C324.066 30.4556 324.078 30.5221 324.075 30.5887C324.08 30.6824 324.053 30.7752 323.999 30.8523C323.946 30.9295 323.867 30.9866 323.777 31.0148V31.0148C323.799 31.0418 323.819 31.071 323.835 31.102L324.142 31.6959H323.804L323.504 31.0718H323.26V31.6959H322.953L322.939 30.0988ZM323.504 30.8605C323.54 30.8626 323.575 30.857 323.609 30.8439C323.642 30.8308 323.673 30.8106 323.697 30.7847C323.722 30.7588 323.741 30.7279 323.752 30.694C323.764 30.6601 323.768 30.6242 323.764 30.5887C323.767 30.5539 323.763 30.5186 323.752 30.4856C323.74 30.4526 323.721 30.4226 323.696 30.3978C323.671 30.3731 323.641 30.3541 323.607 30.3425C323.574 30.3308 323.539 30.3266 323.504 30.3303H323.26V30.8605H323.504Z" fill="#F47920"/>
</g>
<defs>
<clipPath id="clip0_749_5266">
<rect width="279" height="78" fill="white" transform="translate(46)"/>
</clipPath>
</defs>
</svg>
