<?xml version="1.0" encoding="UTF-8"?>
<svg width="30px" height="30px" viewBox="0 0 30 30" version="1.1" xmlns="http://www.w3.org/2000/svg" xmlns:xlink="http://www.w3.org/1999/xlink">
    <title>DB311215-F603-465E-9714-75D4265268AE@1x</title>
    <g id="Icons" stroke="none" stroke-width="1" fill="none" fill-rule="evenodd">
        <g id="Group" transform="translate(7.000000, 7.000000)">
            <path d="M0.874285714,0.506483396 C1.19895607,3.38651735 2.64857122,12.1642784 3.08888503,15.9180497 C3.08888503,15.9180497 3.13394797,17.0022576 4.36313474,17 L12.8148797,16.979504 C12.8148797,16.979504 14.0109479,17.103511 14.1977148,15.6097387 L16.2320623,0.471215352 L0.874285714,0.506483396 Z" id="Clip-25" stroke="#F56200" stroke-width="1.2825"></path>
            <line x1="0" y1="0.471215352" x2="17" y2="0.471215352" id="Path-4" stroke="#F56200" stroke-width="1.2825" stroke-linecap="round" stroke-linejoin="round"></line>
            <path d="M10.9617585,8.98038221 C11.3455736,8.98038221 11.5475816,9.25260286 11.5475816,9.63572821 L11.5475816,12.1008374 C11.5475816,12.4234693 11.3001218,12.6503198 10.9870094,12.6503198 C10.7344995,12.6503198 10.5779433,12.5394151 10.4365377,12.3579347 L9.71940939,11.4505325 C9.61335521,11.3144222 9.49215042,11.1329418 9.39619663,10.9817081 L9.39619663,11.9899327 C9.39619663,12.3780992 9.19418865,12.6503198 8.8103735,12.6503198 C8.42655834,12.6503198 8.22455036,12.3780992 8.22455036,11.9899327 L8.22455036,9.52986463 C8.22455036,9.20723275 8.47201014,8.98038221 8.7901727,8.98038221 C9.03763247,8.98038221 9.19923885,9.09128692 9.33559424,9.27276735 L10.012321,10.1801695 C10.1335257,10.3414854 10.2648309,10.5229659 10.3759353,10.7145286 L10.3759353,9.63572821 C10.3759353,9.25260286 10.5779433,8.98038221 10.9617585,8.98038221 Z M7.31852054,8.98038221 C7.65183371,8.98038221 7.92959467,9.24252061 7.92959467,9.60044035 C7.92959467,9.74663292 7.86394208,9.89786661 7.7376871,10.0440592 L7.09126157,10.8002276 L7.78818909,11.5866429 C7.90939388,11.7227532 7.95989587,11.8891102 7.95989587,12.0302617 C7.95989587,12.3881814 7.7023357,12.6503198 7.36397234,12.6503198 C7.17711496,12.6503198 7.03570938,12.5646207 6.88925359,12.3881814 L6.42463524,11.8235756 C6.31353086,11.6874653 6.26807906,11.632013 6.17212527,11.5009438 L6.17212527,12.0554673 C6.17212527,12.4033048 5.9297157,12.6503198 5.58630214,12.6503198 C5.24288858,12.6503198 5.00047901,12.4033048 5.00047901,12.0554673 L5.00047901,9.57523474 C5.00047901,9.22739724 5.24288858,8.98038221 5.58630214,8.98038221 C5.9297157,8.98038221 6.17212527,9.22739724 6.17212527,9.57523474 L6.17212527,10.1095938 C6.26302886,9.97852458 6.31353086,9.91298998 6.42463524,9.77183854 L6.8286512,9.25764398 C6.97510698,9.07616355 7.13671336,8.98038221 7.31852054,8.98038221 Z M12.1468719,8.98038221 C12.4094823,8.98038221 12.6771429,9.16690376 12.6771429,9.49961789 C12.6771429,9.55002912 12.6619923,9.65085158 12.6367413,9.76175629 C12.5205867,10.2759508 12.3993819,10.5632949 12.0610185,10.5632949 C11.8994121,10.5632949 11.7479062,10.487678 11.667103,10.3162798 C11.6115508,10.1952929 11.59135,10.0138124 11.59135,9.76679741 C11.59135,9.52986463 11.616601,9.35342532 11.6873038,9.22739724 C11.7832576,9.05599906 11.9448639,8.98038221 12.1468719,8.98038221 Z M10.9617585,4.82089552 C11.3455736,4.82089552 11.5475816,5.09311617 11.5475816,5.47624153 L11.5475816,7.94135072 C11.5475816,8.2639826 11.3001218,8.49083314 10.9870094,8.49083314 C10.7344995,8.49083314 10.5779433,8.37992843 10.4365377,8.198448 L9.71940939,7.29104584 C9.61335521,7.15493552 9.49215042,6.97345509 9.39619663,6.8222214 L9.39619663,7.83044602 C9.39619663,8.2186125 9.19418865,8.49083314 8.8103735,8.49083314 C8.42655834,8.49083314 8.22455036,8.2186125 8.22455036,7.83044602 L8.22455036,5.37037794 C8.22455036,5.04774606 8.47201014,4.82089552 8.7901727,4.82089552 C9.03763247,4.82089552 9.19923885,4.93180023 9.33559424,5.11328066 L10.012321,6.02068282 C10.1335257,6.18199876 10.2648309,6.36347919 10.3759353,6.55504187 L10.3759353,5.47624153 C10.3759353,5.09311617 10.5779433,4.82089552 10.9617585,4.82089552 Z M6.24787826,4.89147125 C7.28316915,4.89147125 8.11140185,5.57202287 8.11140185,6.65586433 C8.11140185,7.7397058 7.28316915,8.42025742 6.24787826,8.42025742 L5.46509735,8.42025742 C5.0863324,8.42025742 4.80857143,8.14299565 4.80857143,7.76491142 L4.80857143,5.54681725 C4.80857143,5.16873302 5.0863324,4.89147125 5.46509735,4.89147125 L6.24787826,4.89147125 Z M6.28322966,6.02068282 L5.9802177,6.02068282 L5.9802177,7.29104584 L6.28322966,7.29104584 C6.66199462,7.29104584 6.93975559,7.04907193 6.93975559,6.65586433 C6.93975559,6.26265673 6.66199462,6.02068282 6.28322966,6.02068282 Z" id="DNKN'" fill="#F56200"></path>
        </g>
    </g>
</svg>