<?xml version="1.0" encoding="UTF-8"?>
<svg width="25px" height="20px" viewBox="0 0 25 20" version="1.1" xmlns="http://www.w3.org/2000/svg" xmlns:xlink="http://www.w3.org/1999/xlink">
    <title>EADCBF01-E285-4D0A-A5CD-41C7A8F18E79@1x</title>
    <g id="Locations" stroke="none" stroke-width="1" fill="none" fill-rule="evenodd">
        <g id="Desktop---Location-1.1---Filter" transform="translate(-1009.000000, -497.000000)" fill="#F56200">
            <g id="Group" transform="translate(989.000000, 343.000000)">
                <g transform="translate(20.000000, 150.000000)" id="Icons-/-Food-/-Sprinkled-Donut">
                    <path d="M22.8516413,4.5 C23.6472818,4.5 24.2944187,5.12113215 24.2944187,5.88470474 L24.2944187,5.88470474 L24.2944187,7.22645732 C24.2981063,7.26300014 24.3,7.30011692 24.3,7.33771201 L24.3,7.33771201 L24.3,20.2155139 C24.3,20.253109 24.2981063,20.2902258 24.2944187,20.3268643 L24.2944187,20.3268643 L24.2944187,22.0151996 C24.2944187,22.7787722 23.6472818,23.4 22.8516413,23.4 L22.8516413,23.4 L14.9483587,23.4 C14.1529176,23.4 13.505681,22.7787722 13.505681,22.0151996 L13.505681,22.0151996 L13.505681,20.3268643 C13.5019933,20.2902258 13.5,20.253109 13.5,20.2155139 L13.5,20.2155139 L13.5,7.33771201 C13.5,7.30011692 13.5019933,7.26300014 13.505681,7.22645732 L13.505681,7.22645732 L13.505681,5.88470474 C13.505681,5.12113215 14.1529176,4.5 14.9483587,4.5 L14.9483587,4.5 Z M18.9000498,21.1413289 C18.5299868,21.1413289 18.2298899,21.429271 18.2298899,21.7844633 C18.2298899,22.1397513 18.5299868,22.4276933 18.9000498,22.4276933 C19.2702125,22.4276933 19.5701101,22.1397513 19.5701101,21.7844633 C19.5701101,21.429271 19.2702125,21.1413289 18.9000498,21.1413289 Z M22.9607765,7.15298905 L14.8393232,7.15298905 C14.7607857,7.15298905 14.6944076,7.23755409 14.6944076,7.33771201 L14.6944076,7.33771201 L14.6944076,20.2155139 C14.6944076,20.3156718 14.7607857,20.4003325 14.8393232,20.4003325 L14.8393232,20.4003325 L22.9607765,20.4003325 C23.0392143,20.4003325 23.1055924,20.3156718 23.1055924,20.2155139 L23.1055924,20.2155139 L23.1055924,7.33771201 C23.1055924,7.23755409 23.0392143,7.15298905 22.9607765,7.15298905 L22.9607765,7.15298905 Z M11.1205438,18.0513891 C11.586562,18.0513891 11.9643974,18.4274881 11.9643974,18.8913645 C11.9643974,19.3195581 11.6424548,19.6729592 11.2263893,19.7247949 L11.1205438,19.7313399 L8.60016408,19.7313399 C8.13414593,19.7313399 7.75631048,19.3552409 7.75631048,18.8913645 C7.75631048,18.4631709 8.07825312,18.1097698 8.49431865,18.0579342 L8.60016408,18.0513891 L11.1205438,18.0513891 Z M20.4227754,13.6688224 C20.686178,13.6688224 20.8248109,13.8565746 20.8248109,14.1208184 L20.8248109,15.8210187 C20.8248109,16.0435398 20.6549856,16.2 20.4401045,16.2 C20.2668134,16.2 20.1593729,16.1235084 20.0623298,15.9983402 L19.5701829,15.3724996 C19.4974006,15.2786236 19.4142209,15.1534554 19.3483702,15.0491487 L19.3483702,15.7445271 C19.3483702,16.0122478 19.2097373,16.2 18.9463348,16.2 C18.6829322,16.2 18.5442993,16.0122478 18.5442993,15.7445271 L18.5442993,14.0478037 C18.5442993,13.8252826 18.7141246,13.6688224 18.9324715,13.6688224 C19.1022968,13.6688224 19.2132031,13.7453141 19.3067804,13.8704822 L19.7712007,14.4963228 C19.8543804,14.6075833 19.9444918,14.7327515 20.0207399,14.8648734 L20.0207399,14.1208184 C20.0207399,13.8565746 20.1593729,13.6688224 20.4227754,13.6688224 Z M17.9225141,13.6688224 C18.1512584,13.6688224 18.3418787,13.8496208 18.3418787,14.0964802 C18.3418787,14.1973101 18.296823,14.3016168 18.2101774,14.4024467 L17.7665521,14.9239805 L18.2448356,15.4663757 C18.3280154,15.5602518 18.3626736,15.6749893 18.3626736,15.7723423 C18.3626736,16.0192016 18.1859167,16.2 17.9537065,16.2 C17.8254711,16.2 17.728428,16.1408928 17.6279191,16.0192016 L17.3090634,15.6297897 C17.2328153,15.5359136 17.2016229,15.4976678 17.1357722,15.4072686 L17.1357722,15.7897267 C17.1357722,16.0296323 16.9694127,16.2 16.7337368,16.2 C16.4980608,16.2 16.3317013,16.0296323 16.3317013,15.7897267 L16.3317013,14.0790957 C16.3317013,13.8391902 16.4980608,13.6688224 16.7337368,13.6688224 C16.9694127,13.6688224 17.1357722,13.8391902 17.1357722,14.0790957 L17.1357722,14.4476463 C17.1981571,14.3572471 17.2328153,14.3120475 17.3090634,14.2146945 L17.5863293,13.8600515 C17.6868381,13.7348834 17.7977445,13.6688224 17.9225141,13.6688224 Z M10.8296253,14.120934 C11.2956434,14.120934 11.6732679,14.497033 11.6732679,14.9609095 C11.6732679,15.3891031 11.351505,15.7425041 10.9354672,15.7943398 L10.8296253,15.8008849 L5.17200884,15.8008849 C4.70599069,15.8008849 4.32815524,15.4247859 4.32815524,14.9609095 C4.32815524,14.5327158 4.65009787,14.1793148 5.0661634,14.1274791 L5.17200884,14.120934 L10.8296253,14.120934 Z M21.2360886,13.6688224 C21.4163114,13.6688224 21.6,13.7974674 21.6,14.0269423 C21.6,14.0617113 21.5896025,14.1312491 21.5722734,14.2077407 C21.4925595,14.5623837 21.4093797,14.7605666 21.1771696,14.7605666 C21.0662632,14.7605666 20.9622885,14.7084132 20.9068354,14.5901989 C20.8687113,14.5067535 20.854848,14.3815853 20.854848,14.2112176 C20.854848,14.0478037 20.8721771,13.9261125 20.9206987,13.8391902 C20.9865493,13.7209758 21.0974556,13.6688224 21.2360886,13.6688224 Z M20.4227754,10.8 C20.686178,10.8 20.8248109,10.9877522 20.8248109,11.251996 L20.8248109,12.9521963 C20.8248109,13.1747174 20.6549856,13.3311776 20.4401045,13.3311776 C20.2668134,13.3311776 20.1593729,13.2546859 20.0623298,13.1295178 L19.5701829,12.5036772 C19.4974006,12.4098011 19.4142209,12.284633 19.3483702,12.1803262 L19.3483702,12.8757047 C19.3483702,13.1434254 19.2097373,13.3311776 18.9463348,13.3311776 C18.6829322,13.3311776 18.5442993,13.1434254 18.5442993,12.8757047 L18.5442993,11.1789813 C18.5442993,10.9564602 18.7141246,10.8 18.9324715,10.8 C19.1022968,10.8 19.2132031,10.8764916 19.3067804,11.0016598 L19.7712007,11.6275004 C19.8543804,11.7387609 19.9444918,11.863929 20.0207399,11.9960509 L20.0207399,11.251996 C20.0207399,10.9877522 20.1593729,10.8 20.4227754,10.8 Z M17.1877596,10.8486765 C17.8982533,10.8486765 18.4666483,11.3180569 18.4666483,12.0655888 C18.4666483,12.8131206 17.8982533,13.2825011 17.1877596,13.2825011 L16.650557,13.2825011 C16.3906203,13.2825011 16.2,13.091272 16.2,12.8305051 L16.2,11.3006725 C16.2,11.0399056 16.3906203,10.8486765 16.650557,10.8486765 L17.1877596,10.8486765 Z M17.2120204,11.6275004 L17.004071,11.6275004 L17.004071,12.5036772 L17.2120204,12.5036772 C17.4719571,12.5036772 17.6625774,12.3367864 17.6625774,12.0655888 C17.6625774,11.7943912 17.4719571,11.6275004 17.2120204,11.6275004 Z M10.5382848,10.190269 C11.004303,10.190269 11.3821384,10.566368 11.3821384,11.0302444 C11.3821384,11.458438 11.0601958,11.8118391 10.6441303,11.8636748 L10.5382848,11.8702198 L1.7438536,11.8702198 C1.27783545,11.8702198 0.9,11.4941208 0.9,11.0302444 C0.9,10.6020508 1.22194263,10.2486498 1.63800816,10.1968141 L1.7438536,10.190269 L10.5382848,10.190269 Z M19.5797778,5.76732769 L18.2203219,5.76732769 C18.1201567,5.76732769 18.0390279,5.84519641 18.0390279,5.94124087 C18.0390279,6.03738099 18.1201567,6.11524971 18.2203219,6.11524971 L18.2203219,6.11524971 L19.5797778,6.11524971 C19.6798433,6.11524971 19.7609721,6.03738099 19.7609721,5.94124087 C19.7609721,5.84519641 19.6798433,5.76732769 19.5797778,5.76732769 L19.5797778,5.76732769 Z" id="Combined-Shape"></path>
                </g>
            </g>
        </g>
    </g>
</svg>