<?xml version="1.0" encoding="UTF-8"?>
<svg width="370px" height="78px" viewBox="0 0 370 78" version="1.1" xmlns="http://www.w3.org/2000/svg" xmlns:xlink="http://www.w3.org/1999/xlink" style="background: #FFFFFF;">
    <title>Symbols / Icons / Logo / UberEatsDesktop</title>
    <g id="Symbols-/-Icons-/-Logo-/-UberEatsDesktop" stroke="none" stroke-width="1" fill="none" fill-rule="evenodd">
        <rect fill="#FFFFFF" x="0" y="0" width="370" height="78"></rect>
        <g id="Group" transform="translate(0.000000, 10.000000)" fill-rule="nonzero">
            <path d="M171.573065,23.748083 C166.048221,23.748083 162.129341,28.1083864 162.129341,34.801871 L162.129341,59.354652 L153.695613,59.354652 L153.695613,16.1376688 L162.028327,16.1376688 L162.028327,21.4149612 C164.121118,17.8533831 167.964241,15.7159014 172.067974,15.8320851 L175.098064,15.8320851 L175.098064,23.748083 L171.573065,23.748083 Z M147.867756,37.7462198 C147.867756,24.8585133 138.77753,15.2207987 126.475422,15.2207987 C114.298553,15.3042964 104.494229,25.3291907 104.577058,37.6117321 L104.578069,37.7462198 C104.578069,50.6236452 114.425813,60.3632804 127.273345,60.3632804 C134.555622,60.5027602 141.451061,57.059327 145.756809,51.1330703 L139.636056,46.6096344 C136.785754,50.6226943 132.16692,52.9709111 127.273345,52.8955552 C120.177913,52.861859 114.170283,47.6080411 113.132987,40.5274955 L147.887962,40.5274955 L147.867756,37.7462198 Z M113.314788,33.7830208 C114.819723,27.1915757 120.04156,22.7291734 126.374423,22.7291734 C132.707277,22.7291734 137.91902,27.1915757 139.333043,33.7830208 L113.314788,33.7830208 Z M77.8628755,15.2207987 C72.1703752,15.2259096 66.7152343,17.5262861 62.7125001,21.6085213 L62.7125001,9.41469125e-13 L54.2787867,9.41469125e-13 L54.2787867,59.354652 L62.6114932,59.354652 L62.6114932,53.8735183 C66.6485624,57.9935504 72.1410916,60.3276231 77.8830813,60.3632804 C90.2417586,60.6281554 100.473317,50.7377488 100.735926,38.2718691 C100.998536,25.8059893 91.1921987,15.485733 78.8345317,15.2207987 C78.5173816,15.2146775 78.2002315,15.2146775 77.8830813,15.2207987 L77.8628755,15.2207987 Z M77.2568634,52.7632643 C69.0625299,52.8027866 62.388278,46.1338461 62.3487251,37.8694161 C62.3105114,29.6039758 68.9211261,22.870852 77.1154596,22.8319285 C85.3098006,22.7924652 91.9840526,29.4614057 92.0234532,37.7267866 C92.0234532,37.7675548 92.0234532,37.8082637 92.0234532,37.8480811 C92.0345523,46.052369 85.4501941,52.7110877 77.3174736,52.7224386 C77.2972677,52.7233895 77.2770693,52.7224386 77.2568634,52.7224386 L77.2568634,52.7632643 Z M23.2204912,52.3555242 C31.3612978,52.3555242 37.6840608,46.059441 37.6840608,36.6255678 L37.6840608,9.41469125e-13 L46.4207803,9.41469125e-13 L46.4207803,59.354652 L37.7850641,59.354652 L37.7850641,53.7411106 C33.7075869,57.9915298 28.0837661,60.3734428 22.2205654,60.3331894 C9.66594613,60.3331894 0,51.1025238 0,37.104387 L0,9.41469125e-13 L8.89832723,9.41469125e-13 L8.89832723,36.676439 C8.89832723,46.1613617 14.9584811,52.3555242 23.2204912,52.3555242 Z" id="path2" fill="#262626"></path>
            <path d="M194.932553,0 L236.2123,0 L236.2123,10.0693175 L206.083225,10.0693175 L206.083225,24.3673923 L235.37398,24.3673923 L235.37398,34.0941909 L206.083225,34.0941909 L206.083225,48.6339633 L236.2123,48.6339633 L236.2123,58.7030728 L194.932553,58.7030728 L194.932553,0 Z M350.213894,59.7603141 C362.86953,59.7603141 370.000323,53.7189435 370.000323,45.421887 C370.000323,39.5113196 365.77843,35.1010365 356.940688,33.1878991 L347.597949,31.2848647 C342.174105,30.2779597 340.467186,29.2711141 340.467186,27.2572447 C340.467186,24.6493233 343.083131,23.0483069 347.900948,23.0483069 C353.122793,23.0483069 356.991173,24.4479185 358.001198,29.2610112 L368.949916,29.2610112 C368.353962,20.1988068 361.819093,14.2176971 348.567563,14.2176971 C337.113877,14.2176971 329.074089,18.9301172 329.074089,28.0627449 C329.074089,34.3760625 333.498011,38.4842682 343.042719,40.4880347 L353.48638,42.8946108 C357.607333,43.700111 358.708225,44.8076887 358.708225,46.5093777 C358.708225,49.2180312 355.597386,50.9196609 350.567437,50.9196609 C344.24467,50.9196609 340.628774,49.5200492 339.224824,44.7069566 L328.215548,44.7069566 C329.821497,53.749074 336.548262,59.7603141 350.213894,59.7603141 L350.213894,59.7603141 Z M325.033959,58.66278 L313.186378,58.66278 C305.752587,58.66278 301.631663,54.0511515 301.631663,48.2311538 L301.631663,25.1729519 L293.298949,25.1729519 L293.298949,15.3454807 L301.672075,15.3454807 L301.672075,3.01070123 L312.681351,3.01070123 L312.681351,15.3454807 L325.033959,15.3454807 L325.033959,25.1729519 L312.681351,25.1729519 L312.681351,45.421887 C312.681351,47.727731 314.28727,48.8353681 316.802274,48.8353681 L325.033959,48.8353681 L325.033959,58.66278 Z M277.562753,15.3656271 L277.562753,19.2723686 C273.686291,16.0059742 268.770475,14.2216789 263.695093,14.2377841 C251.08593,13.9739789 240.648331,23.9504981 240.382698,36.5207351 C240.118076,49.0910315 250.125379,59.4965089 262.734572,59.7603141 C263.054745,59.7673862 263.374919,59.7673862 263.695093,59.7603141 C268.771485,59.7824811 273.689322,57.9972944 277.562753,54.7257891 L277.562753,58.6426335 L288.54175,58.6426335 L288.54175,15.3454807 L277.562753,15.3656271 Z M264.604118,50.2550667 C257.269335,50.3386833 251.255629,44.4783928 251.171804,37.1662525 C251.08795,29.8540529 256.966307,23.858918 264.301119,23.7753609 C271.635932,23.6918038 277.649609,29.5519755 277.733463,36.8641751 C277.734443,36.9175423 277.734443,36.9709095 277.734443,37.0242173 C277.801123,44.2539295 271.977322,50.1684787 264.726334,50.2349203 C264.67888,50.2349203 264.631396,50.23599 264.583942,50.2349203 L264.604118,50.2550667 Z" id="path4" fill="#5FB709"></path>
        </g>
    </g>
</svg>