<svg xmlns="http://www.w3.org/2000/svg" width="23.836" height="19.742" viewBox="0 0 23.836 19.742"><defs><style>.a{fill:#f56200;}</style></defs><g transform="translate(9.146 13.907)"><circle class="a" cx="2.917" cy="2.917" r="2.917"/></g><g transform="translate(0 0)"><path class="a" d="M214.493,501.291a1.817,1.817,0,0,1-1.5-2.848,14.127,14.127,0,0,1,23.122-.485,1.817,1.817,0,1,1-2.849,2.257,10.5,10.5,0,0,0-17.279.289A1.815,1.815,0,0,1,214.493,501.291Z" transform="translate(-212.677 -492.187)"/></g><g transform="translate(4.555 7.334)"><path class="a" d="M218.784,505.736a1.818,1.818,0,0,1-1.5-2.848,8.767,8.767,0,0,1,7.1-3.791,8.864,8.864,0,0,1,6.947,3.521,1.818,1.818,0,1,1-2.911,2.177,5.177,5.177,0,0,0-4.041-2.062,5.1,5.1,0,0,0-4.1,2.216A1.815,1.815,0,0,1,218.784,505.736Z" transform="translate(-216.968 -499.097)"/></g></svg>